HIERARCHY
ROOT Hips
{
	OFFSET 0.000000 0.000000 0.000000
	CHANNELS 6 Xposition Yposition Zposition Xrotation Yrotation Zrotation
	JOINT LeftUpLeg_virtual
	{
		OFFSET 0.000000 0.000000 0.000000
		CHANNELS 3 Xrotation Yrotation Zrotation
		JOINT LeftUpLeg
		{
			OFFSET 13.026900 -6.336304 -1.092800
			CHANNELS 3 Xrotation Yrotation Zrotation
			JOINT LeftLeg
			{
				OFFSET 0.524474 -46.096886 9.782700
				CHANNELS 3 Xrotation Yrotation Zrotation
				JOINT LeftFoot
				{
					OFFSET -0.524474 -53.427422 -12.948200
					CHANNELS 3 Xrotation Yrotation Zrotation
					JOINT LeftToeBase
					{
						OFFSET 0.192200 -14.009700 16.364100
						CHANNELS 3 Xrotation Yrotation Zrotation
						JOINT LeftToe_End
						{
							OFFSET -1.784700 -0.561700 9.474800
							CHANNELS 3 Xrotation Yrotation Zrotation
							End Site
							{
								OFFSET 0 0 0
							}
						}
					}
				}
			}
		}
	}
	JOINT RightUpLeg_virtual
	{
		OFFSET 0.000000 0.000000 0.000000
		CHANNELS 3 Xrotation Yrotation Zrotation
		JOINT RightUpLeg
		{
			OFFSET -12.883000 -6.336304 -1.092800
			CHANNELS 3 Xrotation Yrotation Zrotation
			JOINT RightLeg
			{
				OFFSET -0.524587 -46.096825 9.782800
				CHANNELS 3 Xrotation Yrotation Zrotation
				JOINT RightFoot
				{
					OFFSET 0.524587 -53.427383 -12.948300
					CHANNELS 3 Xrotation Yrotation Zrotation
					JOINT RightToeBase
					{
						OFFSET -0.192200 -14.009700 16.364100
						CHANNELS 3 Xrotation Yrotation Zrotation
						JOINT RightToe_End
						{
							OFFSET 1.784700 -0.561700 9.474800
							CHANNELS 3 Xrotation Yrotation Zrotation
							End Site
							{
								OFFSET 0 0 0
							}
						}
					}
				}
			}
		}
	}
	JOINT Spine_virtual
	{
		OFFSET 0.000000 0.000000 0.000000
		CHANNELS 3 Xrotation Yrotation Zrotation
		JOINT Spine
		{
			OFFSET 0.072000 7.257294 -0.789700
			CHANNELS 3 Xrotation Yrotation Zrotation
			JOINT Spine1
			{
				OFFSET 0.000000 12.508769 -0.658067
				CHANNELS 3 Xrotation Yrotation Zrotation
				JOINT Spine1_split
				{
					OFFSET 0.000000 12.508769 -0.658067
					CHANNELS 3 Xrotation Yrotation Zrotation
					JOINT Spine2
					{
						OFFSET 0.000000 12.508769 -0.658067
						CHANNELS 3 Xrotation Yrotation Zrotation
						JOINT Neck_virtual
						{
							OFFSET 0.000000 0.000000 0.000000
							CHANNELS 3 Xrotation Yrotation Zrotation
							JOINT Neck
							{
								OFFSET 0.000000 14.033295 7.520400
								CHANNELS 3 Xrotation Yrotation Zrotation
								JOINT Head
								{
									OFFSET 0.000000 8.198502 5.703100
									CHANNELS 3 Xrotation Yrotation Zrotation
									JOINT HeadTop_End
									{
										OFFSET 0.000000 17.760803 13.332701
										CHANNELS 3 Xrotation Yrotation Zrotation
										End Site
										{
											OFFSET 0 0 0
										}
									}
								}
							}
						}
						JOINT LeftShoulder_virtual
						{
							OFFSET 0.000000 0.000000 0.000000
							CHANNELS 3 Xrotation Yrotation Zrotation
							JOINT LeftShoulder
							{
								OFFSET 6.292450 5.785301 -0.669000
								CHANNELS 3 Xrotation Yrotation Zrotation
								JOINT LeftShoulder_split
								{
									OFFSET 6.292450 5.785301 -0.669000
									CHANNELS 3 Xrotation Yrotation Zrotation
									JOINT LeftArm
									{
										OFFSET 13.907140 -6.093903 1.965100
										CHANNELS 3 Xrotation Yrotation Zrotation
										JOINT LeftForeArm
										{
											OFFSET 34.140198 0.000000 0.000000
											CHANNELS 3 Xrotation Yrotation Zrotation
											JOINT LeftHand
											{
												OFFSET 40.960209 0.000000 0.000000
												CHANNELS 3 Xrotation Yrotation Zrotation
												End Site
												{
													OFFSET 0 0 0
												}
											}
										}
									}
								}
							}
						}
						JOINT RightShoulder_virtual
						{
							OFFSET 0.000000 0.000000 0.000000
							CHANNELS 3 Xrotation Yrotation Zrotation
							JOINT RightShoulder
							{
								OFFSET -6.292450 5.785301 -0.669000
								CHANNELS 3 Xrotation Yrotation Zrotation
								JOINT RightShoulder_split
								{
									OFFSET -6.292450 5.785301 -0.669000
									CHANNELS 3 Xrotation Yrotation Zrotation
									JOINT RightArm
									{
										OFFSET -13.907140 -6.093903 1.965100
										CHANNELS 3 Xrotation Yrotation Zrotation
										JOINT RightForeArm
										{
											OFFSET -34.140198 0.000000 0.000000
											CHANNELS 3 Xrotation Yrotation Zrotation
											JOINT RightHand
											{
												OFFSET -40.960209 0.000000 0.000000
												CHANNELS 3 Xrotation Yrotation Zrotation
												End Site
												{
													OFFSET 0 0 0
												}
											}
										}
									}
								}
							}
						}
					}
				}
			}
		}
	}
}
MOTION
Frames: 11
Frame Time: 0.03333333
4.101398 119.321144 -4.422581 0.000000 0.000000 0.000000 -0.510122 -0.816826 -2.449431 -34.723900 -2.663210 3.151211 47.860683 0.682782 0.056228 26.829212 -1.127018 10.887407 -11.511068 -0.867896 0.664864 0.000000 0.000000 0.000000 -0.760977 2.281462 -2.780859 -23.700796 -15.859021 4.136435 31.716878 4.506553 -1.402815 18.020122 -1.934750 -6.282773 -17.160522 0.530275 2.687708 0.000000 0.000000 0.000000 -5.630913 4.004935 -1.385456 6.132321 1.225101 -0.442218 -2.284868 -0.816488 1.766504 0.019207 1.354335 -0.732912 0.000000 0.000000 0.000000 -2.884867 -0.183997 1.478384 -3.053340 -2.559680 1.883606 2.946243 2.740065 2.533054 0.000000 0.000000 0.000000 -2.366030 0.016305 1.822096 0.354150 2.934269 -1.227860 1.737791 -1.428464 0.276450 1.616760 3.003394 -71.870085 23.432306 -14.734465 1.227866 0.000000 0.000000 0.000000 -1.684934 -0.121948 1.648857 0.812955 4.599212 5.910238 -3.352758 0.661979 -1.891826 -6.936283 6.878390 78.236668 11.944220 19.386146 -3.535221 0.000000 0.000000 0.000000 
3.883810 119.681435 -1.374905 0.000000 0.000000 0.000000 -0.807064 -1.667239 -2.429609 -36.628290 -1.452661 2.994528 41.762058 1.394473 -0.093165 27.278164 -1.074214 12.438555 -11.148062 -0.877089 1.027636 0.000000 0.000000 0.000000 -0.049293 1.367032 -2.878481 -23.283801 -15.486349 4.042350 32.763106 4.900405 -1.377661 19.538328 -1.549209 -6.830100 -18.717462 0.288001 2.929814 0.000000 0.000000 0.000000 -4.650745 3.400051 -2.047651 6.179771 1.435016 -0.192242 -2.252697 -0.775379 1.738514 0.190472 0.828612 -0.486920 0.000000 0.000000 0.000000 -2.816567 -0.175523 1.471688 -3.015636 -2.295768 1.352158 3.321750 2.711680 2.633775 0.000000 0.000000 0.000000 -2.600624 0.067905 1.796030 0.441270 3.363120 -1.427006 1.047500 -1.918494 -0.145582 1.787275 3.111256 -71.513911 23.542568 -15.449594 1.466593 0.000000 0.000000 0.000000 -1.819676 -0.099842 1.683534 0.768761 4.609334 5.454976 -2.879191 0.877853 -1.996842 -7.808247 7.356399 78.052820 12.034700 19.302299 -3.770889 0.000000 0.000000 0.000000 
3.897723 120.250443 2.370228 0.000000 0.000000 0.000000 -0.875292 -2.205147 -2.415751 -38.538386 -0.030131 2.329045 31.839524 1.961543 0.460892 29.744921 -0.998709 11.616696 -11.749625 -0.835436 0.960107 0.000000 0.000000 0.000000 0.281525 0.145916 -2.869964 -21.644192 -15.501582 3.536336 33.859109 5.637797 -1.379733 19.901542 -0.132057 -7.867208 -21.722406 0.212335 2.976007 0.000000 0.000000 0.000000 -3.429157 2.559873 -2.705767 6.375949 1.637158 0.455519 -2.264090 -0.692706 1.740328 0.661974 0.432636 -0.234374 0.000000 0.000000 0.000000 -2.758706 -0.156564 1.496361 -3.228641 -1.676826 0.393355 3.710060 2.732411 2.376769 0.000000 0.000000 0.000000 -2.854350 0.155468 1.761130 0.554825 4.421432 -2.261961 -0.101156 -2.623027 -0.641482 2.256273 3.609146 -71.564311 24.075590 -15.965839 1.956986 0.000000 0.000000 0.000000 -1.910573 -0.073359 1.638445 0.775745 4.543631 4.625918 -2.457473 1.027478 -1.783987 -9.069652 8.904129 77.346298 11.981650 19.149755 -3.849183 0.000000 0.000000 0.000000 
4.114867 120.542892 6.256012 0.000000 0.000000 0.000000 -0.809871 -2.512992 -2.282116 -40.406118 1.508797 1.568649 20.898089 2.101653 1.436555 34.550939 -1.116209 8.456330 -14.545125 -0.730635 0.824397 0.000000 0.000000 0.000000 0.324565 -1.224153 -2.745971 -18.848605 -15.988351 2.680073 34.070841 6.649118 -1.340858 18.468123 1.865397 -9.384410 -24.710670 0.389498 2.843782 0.000000 0.000000 0.000000 -2.559396 1.734646 -3.264894 6.632480 1.762661 1.316314 -2.301276 -0.630569 1.803330 1.014218 0.199086 0.070769 0.000000 0.000000 0.000000 -2.735070 -0.172175 1.605153 -3.679732 -0.766276 -0.753786 4.050570 2.780892 1.841830 0.000000 0.000000 0.000000 -3.095973 0.213441 1.781024 0.713800 5.970516 -3.553496 -1.337526 -3.314506 -0.899228 3.134170 4.364617 -71.883397 24.821819 -16.020822 2.548838 0.000000 0.000000 0.000000 -2.008340 -0.107522 1.568664 0.844511 4.369792 3.481849 -2.119466 1.059423 -1.464810 -10.317723 10.895036 76.554324 11.771678 19.351084 -3.767666 0.000000 0.000000 0.000000 
4.429434 120.194008 10.367607 0.000000 0.000000 0.000000 -0.897313 -2.887074 -2.055314 -42.787177 3.216722 0.898963 12.247938 1.473521 2.425699 40.975999 -1.857772 3.810418 -18.624905 -0.495134 0.839499 0.000000 0.000000 0.000000 0.325087 -2.394806 -2.571915 -14.644694 -17.007661 1.812247 32.856871 7.682961 -1.257287 14.966843 3.914440 -10.918049 -26.761403 0.731658 2.587791 0.000000 0.000000 0.000000 -1.878366 1.164010 -3.634943 6.822997 1.777369 2.080928 -2.298169 -0.617878 1.957790 0.968757 0.191167 0.252234 0.000000 0.000000 0.000000 -2.755392 -0.259645 1.851264 -4.325820 0.245206 -1.780901 4.277071 2.800863 1.182684 0.000000 0.000000 0.000000 -3.293878 0.210102 1.913574 0.935141 7.725798 -4.995627 -2.198519 -3.836425 -0.820729 4.194924 5.017396 -72.318664 25.474616 -15.518694 3.037799 0.000000 0.000000 0.000000 -2.117399 -0.218291 1.557334 0.948320 4.159258 2.197417 -1.765940 1.133969 -1.158645 -11.312627 12.627517 76.147983 11.416963 20.124714 -3.540804 0.000000 0.000000 0.000000 
4.794525 118.720520 14.830944 0.000000 0.000000 0.000000 -1.203314 -3.621000 -1.754848 -45.093923 5.468090 0.156578 7.565683 0.950570 2.985623 46.090458 -2.301946 0.348172 -21.360650 -0.129239 0.665886 0.000000 0.000000 0.000000 0.141314 -2.653082 -2.430250 -9.201543 -18.277081 1.188936 30.512210 8.552311 -1.133104 9.818742 5.501642 -11.666703 -27.334492 1.106392 2.283139 0.000000 0.000000 0.000000 -1.696648 0.626081 -3.727775 6.841003 1.660045 2.435568 -2.239518 -0.667572 2.184588 0.667699 0.389998 0.248672 0.000000 0.000000 0.000000 -2.817942 -0.423594 2.197765 -5.129872 1.203391 -2.425736 4.355172 2.807123 0.598699 0.000000 0.000000 0.000000 -3.418957 0.139781 2.160505 1.178270 9.237058 -6.223882 -2.568277 -4.293938 -0.538974 5.183879 5.319303 -72.791013 25.735077 -14.323696 3.254730 0.000000 0.000000 0.000000 -2.215444 -0.386310 1.660615 1.064815 4.006160 0.901196 -1.296871 1.110870 -0.862286 -11.809192 13.534452 76.501582 10.989651 21.236844 -3.221806 0.000000 0.000000 0.000000 
4.966501 116.258148 19.869865 0.000000 0.000000 0.000000 -1.741106 -4.659276 -1.396528 -46.620242 8.566222 -0.549351 6.667165 0.916832 3.181933 47.364722 -1.648919 -0.438067 -21.767664 0.258367 0.633097 0.000000 0.000000 0.000000 -0.176374 -2.392414 -2.175969 -2.994517 -19.216732 1.119682 27.767637 8.959758 -0.969739 3.715730 6.154497 -11.490086 -27.440442 1.353245 2.050480 0.000000 0.000000 0.000000 -2.160762 0.438921 -3.595947 6.571594 1.436380 2.254465 -2.117976 -0.758495 2.436167 0.532036 0.920451 -0.003222 0.000000 0.000000 0.000000 -2.841680 -0.609151 2.575921 -5.986825 2.012789 -2.544856 4.299660 2.770555 0.255672 0.000000 0.000000 0.000000 -3.443787 0.050275 2.459490 1.405824 10.207707 -7.036693 -2.422774 -4.690664 0.004351 5.818624 5.123956 -73.286263 25.591341 -12.565490 3.231224 0.000000 0.000000 0.000000 -2.277292 -0.554308 1.830728 1.124760 3.919495 -0.261022 -0.790844 0.906012 -0.643215 -11.788098 13.351629 77.577350 10.572863 22.064286 -2.904149 0.000000 0.000000 0.000000 
4.981696 113.530273 24.731216 0.000000 0.000000 0.000000 -2.383370 -5.494267 -1.094656 -46.970040 12.301548 -1.302665 8.760197 0.443227 3.049516 45.073241 -0.775324 1.287307 -20.572468 0.583240 0.934794 0.000000 0.000000 0.000000 -0.791064 -1.900213 -1.816745 3.207692 -19.187436 1.748367 25.312884 8.648090 -0.996735 -2.741486 5.799701 -10.872167 -27.803532 1.381179 1.911293 0.000000 0.000000 0.000000 -2.793910 0.792103 -3.222879 5.977728 1.156473 1.610113 -1.912921 -0.815735 2.657011 0.547205 1.530991 -0.305703 0.000000 0.000000 0.000000 -2.769045 -0.728531 2.886494 -6.750112 2.517974 -2.116282 4.156524 2.646033 0.237742 0.000000 0.000000 0.000000 -3.333241 0.014339 2.725820 1.590580 10.470523 -7.303591 -1.997536 -4.819937 0.498760 5.774381 4.418064 -73.900844 25.245996 -10.679107 3.095363 0.000000 0.000000 0.000000 -2.182406 -0.622456 2.014250 1.102656 3.933898 -1.185143 -0.371438 0.622403 -0.322209 -11.186567 12.374646 79.087860 10.272420 22.124823 -2.676698 0.000000 0.000000 0.000000 
4.884723 111.164032 29.243994 0.000000 0.000000 0.000000 -3.012714 -6.023915 -0.780519 -46.450986 16.117153 -1.950198 12.599021 -1.186037 2.444246 41.318000 -1.110345 4.597594 -19.977345 0.710054 1.661495 0.000000 0.000000 0.000000 -1.509362 -1.349389 -1.322023 8.404841 -17.661158 2.751502 23.907327 7.475391 -1.186901 -8.253144 4.651916 -10.859590 -28.061564 1.339238 1.809386 0.000000 0.000000 0.000000 -3.454981 1.735340 -2.582460 5.075032 0.848428 0.627738 -1.633168 -0.794770 2.830412 0.666172 1.721382 -0.495170 0.000000 0.000000 0.000000 -2.576397 -0.729130 3.063524 -7.285855 2.700529 -1.301898 3.978353 2.435124 0.523038 0.000000 0.000000 0.000000 -3.084588 0.070075 2.897686 1.718678 10.109528 -7.088610 -1.444205 -4.692600 0.756719 5.137927 3.626134 -74.721908 24.960831 -9.179706 3.049470 0.000000 0.000000 0.000000 -1.892462 -0.562995 2.175044 1.035739 4.014724 -1.862068 -0.164463 0.317945 0.000195 -9.963220 10.925799 80.633703 10.187888 21.227654 -2.573864 0.000000 0.000000 0.000000 
4.684078 109.639549 33.469322 0.000000 0.000000 0.000000 -3.569428 -6.057800 -0.360284 -45.813453 19.312958 -2.337909 17.265846 -4.110475 1.664308 38.805730 -3.176157 8.066831 -22.276433 0.492824 3.018112 0.000000 0.000000 0.000000 -2.178720 -0.635790 -0.599149 11.753152 -14.756777 3.635609 23.658128 5.834973 -1.544247 -11.308334 3.300495 -11.101776 -29.407062 1.390094 1.475939 0.000000 0.000000 0.000000 -3.917291 2.996299 -1.720205 3.941788 0.574242 -0.540993 -1.310766 -0.697440 2.963396 0.703620 1.839520 -0.477732 0.000000 0.000000 0.000000 -2.243465 -0.614348 3.137440 -7.525422 2.622253 -0.369793 3.756522 2.153734 0.955342 0.000000 0.000000 0.000000 -2.744660 0.198662 2.998069 1.792478 9.442274 -6.601520 -0.867462 -4.475678 0.910713 4.184069 3.291427 -75.638560 24.841348 -8.441908 3.237200 0.000000 0.000000 0.000000 -1.453493 -0.404832 2.304345 0.964681 4.148148 -2.252599 -0.237334 0.095215 0.162289 -8.192838 9.409502 81.766783 10.345618 19.763499 -2.544684 0.000000 0.000000 0.000000 
4.472882 109.095688 37.503643 0.000000 0.000000 0.000000 -4.059413 -5.543166 0.283399 -44.902213 21.440983 -2.892643 22.061043 -7.623116 1.151280 38.527434 -5.661738 10.982484 -26.050090 0.087819 4.251117 0.000000 0.000000 0.000000 -2.583915 0.419546 0.307330 12.911685 -10.889492 3.947957 25.019806 4.655401 -2.089521 -10.303003 2.064712 -9.686403 -33.932885 1.715571 0.569542 0.000000 0.000000 0.000000 -4.385749 4.168963 -0.658686 2.768561 0.325605 -1.757133 -0.959769 -0.560593 3.062905 0.619466 1.899212 -0.361879 0.000000 0.000000 0.000000 -1.799239 -0.471440 3.161333 -7.498977 2.424205 0.395727 3.472609 1.949600 1.323718 0.000000 0.000000 0.000000 -2.353342 0.327285 3.067404 1.815560 8.695849 -6.019946 -0.381302 -4.135015 0.827696 3.297460 3.796555 -76.457233 24.789357 -8.511444 3.653521 0.000000 0.000000 0.000000 -0.941310 -0.241104 2.441250 0.953545 4.368389 -2.332871 -0.571508 -0.080909 0.128759 -6.000696 8.122186 82.303773 10.731737 18.297469 -2.532647 0.000000 0.000000 0.000000 
